<svg width="126" height="33" viewBox="0 0 126 33" fill="none" xmlns="http://www.w3.org/2000/svg">
<path d="M33.7059 13.7484L39.2982 0.402H43.2199L48.7764 13.7484H44.6135L41.1116 4.88653L38.7979 10.7021H41.5494L42.6482 13.7484H33.7059ZM53.922 13.9449C50.7954 13.9449 48.1511 12.1761 48.1511 8.64747C48.1511 5.1188 50.7239 3.17133 53.386 3.17133C53.8059 3.17133 54.2258 3.20707 54.6635 3.31427V0.00893268H58.1296V13.1499C57.3346 13.5072 55.6372 13.9449 53.931 13.9449H53.922ZM53.8416 11.0773C54.1364 11.0773 54.4223 11.0416 54.6546 10.9612V6.11933C54.4134 6.02107 54.1364 5.95853 53.8148 5.95853C52.6624 5.95853 51.6083 6.81613 51.6083 8.58493C51.6083 10.3537 52.6803 11.0773 53.8416 11.0773ZM64.3026 13.9271C61.3992 13.9271 58.9694 11.9796 58.9694 8.5492C58.9694 5.1188 61.3992 3.17133 64.3026 3.17133C67.2059 3.17133 69.6626 5.1188 69.6626 8.5492C69.6626 11.9796 67.2148 13.9271 64.3026 13.9271ZM64.3026 11.0416C65.321 11.0416 66.2143 10.2465 66.2143 8.5492C66.2143 6.85187 65.321 6.0568 64.3026 6.0568C63.2842 6.0568 62.4087 6.85187 62.4087 8.5492C62.4087 10.2465 63.2842 11.0416 64.3026 11.0416ZM74.6384 13.9449C73.2806 13.9449 71.5743 13.668 70.4934 13.1677V0H73.9595V3.28747C74.3972 3.20707 74.835 3.14453 75.2548 3.14453C77.9795 3.14453 80.4898 4.94013 80.4898 8.40627C80.4898 12.0689 77.8008 13.9449 74.6384 13.9449ZM73.9595 6.1372V10.9612C74.1828 11.0416 74.4419 11.0773 74.7367 11.0773C75.9159 11.0773 77.0236 10.2376 77.0236 8.45093C77.0236 6.7804 75.9516 5.98533 74.7903 5.98533C74.4687 5.98533 74.2096 6.04786 73.9506 6.14613L73.9595 6.1372ZM81.2938 8.53133C81.2938 5.20813 83.6254 3.17133 86.4126 3.17133C89.0211 3.17133 91.4153 4.84186 91.4153 8.20973C91.4153 8.66533 91.3974 9.10307 91.3348 9.5408H84.8224C85.1976 10.7111 86.2339 11.2739 87.5292 11.2739C88.5834 11.2739 89.5571 11.0148 90.6559 10.5324V13.1856C89.6375 13.7037 88.4226 13.9181 87.1719 13.9181C83.8666 13.9181 81.2938 11.926 81.2938 8.5224V8.53133ZM84.7778 7.37893H88.1635C87.9848 6.2444 87.2255 5.7888 86.4483 5.7888C85.7158 5.7888 85.0368 6.26227 84.7778 7.37893Z" fill="#EB1000"/>
<path d="M7.2896 18.3401C8.4688 18.3401 9.5408 18.5188 10.4341 18.9744V22.4227C9.6212 21.9492 8.79933 21.6633 7.72733 21.6633C5.79773 21.6633 4.03787 22.9944 4.03787 25.2724C4.03787 27.5504 5.77093 28.8011 7.72733 28.8011C8.79933 28.8011 9.60334 28.542 10.4341 28.0685V31.4185C9.49614 31.8741 8.45987 32.0975 7.2896 32.0975C3.36787 32.0975 0 29.6051 0 25.2635C0 20.9219 3.36787 18.3491 7.2896 18.3491V18.3401ZM11.4793 21.4847H14.9276V22.9229C15.8209 21.5293 16.9197 21.2077 18.0364 21.306V24.5935C16.7053 24.3523 15.8031 24.6739 14.9455 25.5493V31.8831H11.4793V21.4847ZM18.2955 26.666C18.2955 23.3428 20.6271 21.306 23.4143 21.306C26.0228 21.306 28.4169 22.9765 28.4169 26.3444C28.4169 26.8 28.3991 27.2377 28.3365 27.6755H21.8241C22.1993 28.8457 23.2356 29.4085 24.5309 29.4085C25.5851 29.4085 26.5588 29.1495 27.6576 28.6671V31.3203C26.6392 31.8384 25.4243 32.0528 24.1736 32.0528C20.8683 32.0528 18.2955 30.0607 18.2955 26.6571V26.666ZM21.7795 25.5136H25.1652C24.9865 24.3791 24.2272 23.9235 23.45 23.9235C22.7175 23.9235 22.0385 24.4059 21.7795 25.5136ZM29.0333 28.8011C29.0333 26.5141 31.088 25.5761 33.232 25.5761C33.8484 25.5761 34.3665 25.6387 34.8668 25.7727V25.7101C34.8668 24.5131 34.1075 23.9949 32.8747 23.9949C31.9009 23.9949 30.9451 24.254 29.6051 24.8883V22.1815C30.6771 21.6455 32.0171 21.306 33.4285 21.306C36.0549 21.306 38.19 22.6192 38.19 25.6655V31.222C36.8321 31.8027 35.2241 32.0796 33.6072 32.0796C31.1773 32.0796 29.0244 31.0612 29.0244 28.7921L29.0333 28.8011ZM33.7769 29.6587C34.1789 29.6587 34.572 29.6229 34.8757 29.5157V27.9256C34.5184 27.8273 34.1789 27.7827 33.7412 27.7827C32.8657 27.7827 32.2851 28.1221 32.2851 28.7207C32.2851 29.3192 32.8657 29.6587 33.7769 29.6587ZM44.4701 32.0439C42.4601 32.0439 40.6467 30.9897 40.6467 28.3812V24.3165H38.6724V21.4847H40.6467V18.8136L44.1307 18.5903V21.4757H46.6409V24.3076H44.1307V27.8541C44.1307 28.8904 44.7292 29.1316 45.426 29.1316C45.8637 29.1316 46.2211 29.0512 46.6588 28.8725V31.6419C46.0781 31.8652 45.4439 32.0439 44.4701 32.0439ZM47.0429 18.7243C47.0429 17.6523 47.9005 16.7947 49.0976 16.7947C50.2947 16.7947 51.1523 17.6523 51.1523 18.7243C51.1523 19.7963 50.2589 20.6807 49.0976 20.6807C47.9363 20.6807 47.0429 19.8052 47.0429 18.7243ZM47.3645 21.4936H50.8307V31.892H47.3645V21.4936ZM51.1523 21.4936H54.94L56.95 27.9435L58.96 21.4936H62.5065L58.8796 31.892H54.7971L51.1523 21.4936ZM62.1135 26.6749C62.1135 23.3517 64.4451 21.3149 67.2323 21.3149C69.8408 21.3149 72.2349 22.9855 72.2349 26.3533C72.2349 26.8089 72.2171 27.2467 72.1545 27.6844H65.6421C66.0173 28.8547 67.0536 29.4175 68.3489 29.4175C69.4031 29.4175 70.3768 29.1584 71.4756 28.676V31.3292C70.4572 31.8473 69.2423 32.0617 67.9916 32.0617C64.6863 32.0617 62.1135 30.0696 62.1135 26.666V26.6749ZM65.5975 25.5225H68.9832C68.8045 24.388 68.0452 23.9324 67.268 23.9324C66.5355 23.9324 65.8565 24.4148 65.5975 25.5225ZM83.5624 18.3491C84.7416 18.3491 85.8136 18.5277 86.7069 18.9833V22.4316C85.894 21.9581 85.0721 21.6723 84.0001 21.6723C82.0705 21.6723 80.3196 23.0033 80.3196 25.2813C80.3196 27.5593 82.0527 28.81 84.0001 28.81C85.0721 28.81 85.8761 28.5509 86.7069 28.0775V31.4275C85.7689 31.8831 84.7327 32.1064 83.5624 32.1064C79.6407 32.1064 76.2728 29.614 76.2728 25.2724C76.2728 20.9308 79.6407 18.358 83.5624 18.358V18.3491ZM87.7522 18.1525H91.254V28.0328C91.254 28.7921 91.6114 29.0691 92.1474 29.0691C92.4243 29.0691 92.6655 29.0333 92.9424 28.9261V31.7312C92.469 31.9277 92.0223 32.026 91.3076 32.026C89.1011 32.026 87.7432 30.6949 87.7432 28.4795V18.1436L87.7522 18.1525ZM98.4453 32.0707C95.542 32.0707 93.1122 30.1232 93.1122 26.6928C93.1122 23.2624 95.542 21.3149 98.4453 21.3149C101.349 21.3149 103.805 23.2624 103.805 26.6928C103.805 30.1232 101.358 32.0707 98.4453 32.0707ZM98.4453 29.1852C99.4637 29.1852 100.357 28.3901 100.357 26.6928C100.357 24.9955 99.4637 24.2004 98.4453 24.2004C97.4269 24.2004 96.5515 24.9955 96.5515 26.6928C96.5515 28.3901 97.4269 29.1852 98.4453 29.1852ZM108.084 27.6933C108.084 28.6849 108.638 29.1852 109.442 29.1852C109.978 29.1852 110.416 28.9619 110.854 28.5509V21.5025H114.32V31.9009H110.898V30.7843C110.166 31.6597 109.246 32.0796 108.147 32.0796C106.119 32.0796 104.6 30.7664 104.6 28.4169V21.5025H108.084V27.6933ZM120.931 32.0975C117.804 32.0975 115.16 30.3287 115.16 26.8C115.16 23.2713 117.732 21.3239 120.395 21.3239C120.814 21.3239 121.234 21.3596 121.672 21.4668V18.1615H125.138V31.3024C124.343 31.6597 122.646 32.0975 120.939 32.0975H120.931ZM120.85 29.2299C121.145 29.2299 121.431 29.1941 121.663 29.1137V24.2719C121.422 24.1736 121.145 24.1111 120.823 24.1111C119.671 24.1111 118.617 24.9687 118.617 26.7375C118.617 28.5063 119.689 29.2299 120.85 29.2299Z" fill="black"/>
</svg>
